<svg xmlns="http://www.w3.org/2000/svg" width="1024" height="1024" viewBox="0 0 1024 1024">
  <defs>
    <linearGradient id="bg" x1="0%" y1="0%" x2="100%" y2="100%">
      <stop offset="0%" stop-color="#0d0f17"/>
      <stop offset="100%" stop-color="#222634"/>
    </linearGradient>
    <linearGradient id="metal" x1="0%" y1="0%" x2="0%" y2="100%">
      <stop offset="0%" stop-color="#dae1eb"/>
      <stop offset="100%" stop-color="#586074"/>
    </linearGradient>
  </defs>
  <rect x="64" y="64" width="896" height="896" rx="210" fill="url(#bg)"/>
  <rect x="156" y="176" width="712" height="668" rx="150" fill="#141822"/>
  <g stroke="#555f7a" stroke-width="6" fill="none">
    <rect x="242" y="246" width="120" height="430" rx="42"/>
    <rect x="420" y="246" width="120" height="430" rx="42"/>
    <rect x="598" y="246" width="120" height="430" rx="42"/>
  </g>
  <g>
    <rect x="228" y="290" width="146" height="350" rx="58" fill="url(#metal)" stroke="#3aff67" stroke-width="10"/>
    <rect x="438" y="240" width="148" height="420" rx="58" fill="url(#metal)" stroke="#ffc847" stroke-width="10"/>
    <rect x="648" y="332" width="148" height="300" rx="58" fill="url(#metal)" stroke="#ff5656" stroke-width="10"/>
  </g>
  <g fill="#242936">
    <circle cx="266" cy="342" r="12"/><circle cx="312" cy="342" r="12"/><circle cx="266" cy="412" r="12"/><circle cx="312" cy="412" r="12"/>
    <circle cx="266" cy="482" r="12"/><circle cx="312" cy="482" r="12"/><circle cx="266" cy="552" r="12"/><circle cx="312" cy="552" r="12"/>
    <circle cx="476" cy="292" r="12"/><circle cx="522" cy="292" r="12"/><circle cx="476" cy="362" r="12"/><circle cx="522" cy="362" r="12"/>
    <circle cx="476" cy="432" r="12"/><circle cx="522" cy="432" r="12"/><circle cx="476" cy="502" r="12"/><circle cx="522" cy="502" r="12"/>
    <circle cx="686" cy="384" r="12"/><circle cx="732" cy="384" r="12"/><circle cx="686" cy="454" r="12"/><circle cx="732" cy="454" r="12"/>
    <circle cx="686" cy="524" r="12"/><circle cx="732" cy="524" r="12"/><circle cx="686" cy="594" r="12"/><circle cx="732" cy="594" r="12"/>
  </g>
  <polyline points="194,760 322,714 462,732 590,602 710,630 826,488"
            fill="none" stroke="#00f3ff" stroke-width="9" stroke-linecap="round" stroke-linejoin="round"/>
</svg>
